<?xml version="1.0" encoding="UTF-8"?>
<svg width="800" height="200" viewBox="0 0 800 200" version="1.1" xmlns="http://www.w3.org/2000/svg">
    <g fill="#FFFFFF">
        <!-- Fox head icon -->
        <path d="M60 40 C40 40 25 55 25 75 C25 95 40 110 60 110 C80 110 95 95 95 75 C95 55 80 40 60 40 Z 
                 M45 65 C50 65 54 69 54 74 C54 79 50 83 45 83 C40 83 36 79 36 74 C36 69 40 65 45 65 Z 
                 M75 65 C80 65 84 69 84 74 C84 79 80 83 75 83 C70 83 66 79 66 74 C66 69 70 65 75 65 Z"/>
        
        <!-- Text "aimporo" with exact styling -->
        <path d="M120 50 L600 50 Q620 50 620 70 L620 80 Q620 100 600 100 L120 100 Q100 100 100 80 L100 70 Q100 50 120 50 Z"/>
    </g>
</svg>
